<svg preserveAspectRatio="none" overflow="visible" style="display: block;" width="40" height="40" viewBox="0 0 40 40" fill="none" xmlns="http://www.w3.org/2000/svg">
<g id="Group 30286">
<path id="Rectangle 11902" d="M40 20C40 8.9543 31.0457 0 20 0C8.9543 0 0 8.9543 0 20C0 31.0457 8.9543 40 20 40C31.0457 40 40 31.0457 40 20Z" fill="#E5F9F3"/>
<path id="pickup" d="M26.7527 17.5408L25.7865 15.9128C25.1044 14.6918 23.854 13.9941 22.4899 13.9941H22.433C21.8646 13.9941 17.0334 13.9941 14.703 13.9941H13.3957C13.1116 13.9941 12.8274 14.2267 12.8274 14.5756V15.6221H12.3158C11.9748 15.6221 11.7474 15.9128 11.7474 16.2035C11.7474 16.4942 11.918 16.7849 12.3158 16.7849H12.8274V17.657H11.8043C11.4632 17.657 11.2359 17.9478 11.2359 18.2385C11.2359 18.5292 11.4064 18.8199 11.8043 18.8199H12.8274V20.9711H11.8043C11.4632 20.9711 11.2359 21.2618 11.2359 21.5525C11.2359 21.8432 11.4064 22.134 11.8043 22.134H12.8274V23.5875C12.8274 23.8782 13.0547 24.1689 13.3957 24.1689H14.362C14.5893 25.0992 15.3851 25.7387 16.2945 25.7387C17.2039 25.7387 17.9996 25.0992 18.227 24.1689H23.1719C23.3993 25.0992 24.195 25.7387 25.1044 25.7387C26.0138 25.7387 26.8096 25.0992 27.0369 24.1689H27.8327C28.1168 24.1689 28.401 23.9363 28.401 23.5875V19.1687C28.2874 18.2966 27.6053 17.5408 26.7527 17.5408ZM24.7066 22.7735C24.8202 22.7154 24.9339 22.7154 25.0476 22.7154C25.2749 22.7154 25.5023 22.8316 25.616 22.9479C25.7865 23.1224 25.8433 23.3549 25.8433 23.5875C25.8433 23.8201 25.7296 24.0526 25.616 24.227C25.3886 24.4596 24.9907 24.5759 24.7066 24.4015C24.3655 24.2852 24.195 23.9363 24.195 23.5875C24.195 23.2386 24.3655 22.8898 24.7066 22.7735ZM16.806 18.1222C16.806 17.8315 16.6355 17.5408 16.2377 17.5408H13.9641V16.6686H14.8167C15.1577 16.6686 15.3851 16.3779 15.3851 16.0872C15.3851 15.7965 15.2146 15.5058 14.8167 15.5058H13.9641V15.0988H22.3762V18.064C22.3762 18.3548 22.6035 18.6455 22.9446 18.6455H26.7527C27.0369 18.6455 27.2643 18.878 27.2643 19.1687V22.8898H26.9232C26.6391 22.0758 25.9002 21.5525 25.1044 21.5525C24.2519 21.5525 23.5698 22.0758 23.2856 22.8898H18.227C17.9428 22.0758 17.2039 21.5525 16.4082 21.5525C15.5556 21.5525 14.8735 22.0758 14.5894 22.8898H13.9641V18.7036H16.2945C16.6355 18.7036 16.806 18.4129 16.806 18.1222ZM23.4561 17.5408V15.2733C24.0245 15.5058 24.536 15.9128 24.8771 16.4942L25.5023 17.5408H23.4561ZM15.9535 22.7735C16.0671 22.7154 16.1808 22.7154 16.2945 22.7154C16.5219 22.7154 16.7492 22.8316 16.8629 22.9479C17.0334 23.1224 17.0902 23.3549 17.0902 23.5875C17.0902 23.8201 16.9766 24.0526 16.8629 24.227C16.6355 24.4596 16.2377 24.5759 15.9535 24.4015C15.6124 24.2852 15.4419 23.9363 15.4419 23.5875C15.4419 23.2386 15.6124 22.8898 15.9535 22.7735Z" fill="#00C48C"/>
</g>
</svg>
